<?xml version="1.0" encoding="UTF-8"?>
<svg width="36px" height="36px" viewBox="0 0 36 36" version="1.1" xmlns="http://www.w3.org/2000/svg" xmlns:xlink="http://www.w3.org/1999/xlink">
    <!-- Generator: Sketch 43.1 (39012) - http://www.bohemiancoding.com/sketch -->
    <title>folder_root_open</title>
    <desc>Created with Sketch.</desc>
    <defs></defs>
    <g id="Icons:-folders-and-files" stroke="none" stroke-width="1" fill="none" fill-rule="evenodd">
        <g id="folder-root-open" fill="#FFAE57">
            <g transform="translate(3.000000, 5.000000)">
                <path d="M24.9609689,28.9744958 C22.4028143,28.7511587 20.1730142,27.0234519 19.3466984,24.6293281 C18.5469916,22.3123007 19.1559752,19.7361301 20.9146593,18.0044535 C22.255535,16.6841691 24.1755968,15.9798199 26.0199277,16.1289096 C28.4285459,16.3236151 30.4251907,17.6568204 31.4638821,19.7554319 C32.6756936,22.2038192 32.1677592,25.169404 30.2016131,27.1053578 C28.8268808,28.4589778 26.907217,29.1444113 24.960969,28.9744958 L24.9609689,28.9744958 Z" id="Path-Copy-3" fill-rule="nonzero"></path>
                <polygon id="Path" points="6.70056851 0.109214481 9.22688429 2.43064305 27.7894737 2.43064305 27.7894737 6.60921448 3.36842105 6.60921448 0.00145153684 23.0231908 0 0.109214481"></polygon>
                <path d="M17.7928106,26.1092145 L0.631578947,26.1092145 L4.42105263,8.00207162 L31.688485,8.00207162 L30.187688,15.4491065 C29.0168855,14.7106058 27.6535376,14.2544417 26.1810757,14.1354123 C23.7552049,13.9393128 21.2648183,14.8528781 19.5114305,16.5793398 C17.2044894,18.8508542 16.4045202,22.2349466 17.4561365,25.281843 C17.5539172,25.5651476 17.6664791,25.8411982 17.7928106,26.1092145 Z" id="Combined-Shape"></path>
            </g>
        </g>
    </g>
</svg>