<?xml version="1.0" encoding="UTF-8"?>
<svg width="36px" height="36px" viewBox="0 0 36 36" version="1.1" xmlns="http://www.w3.org/2000/svg" xmlns:xlink="http://www.w3.org/1999/xlink">
    <!-- Generator: Sketch 43.1 (39012) - http://www.bohemiancoding.com/sketch -->
    <title>folder_root_closed_mono</title>
    <desc>Created with Sketch.</desc>
    <defs></defs>
    <g id="Icons:-folders-and-files" stroke="none" stroke-width="1" fill="none" fill-rule="evenodd">
        <g id="folder-root-closed-mono" fill="#738699">
            <g transform="translate(3.000000, 5.000000)">
                <path d="M30,16.0319085 L30,3.46405319 L12.0833333,3.46405319 L9.58333333,0.109214481 L0,0.109214481 L0,26.1092145 L16.7928106,26.1092145 C16.6664791,25.8411982 16.5539172,25.5651476 16.4561365,25.281843 C15.4045202,22.2349466 16.2044894,18.8508542 18.5114305,16.5793398 C20.2648183,14.8528781 22.7552049,13.9393128 25.1810757,14.1354123 C27.0086475,14.2831477 28.6681297,14.9502381 30,16.0319085 Z" id="Combined-Shape"></path>
                <path d="M23.9609689,28.9744958 C21.4028143,28.7511587 19.1730142,27.0234519 18.3466984,24.6293281 C17.5469916,22.3123007 18.1559752,19.7361301 19.9146593,18.0044535 C21.255535,16.6841691 23.1755968,15.9798199 25.0199277,16.1289096 C27.4285459,16.3236151 29.4251907,17.6568204 30.4638821,19.7554319 C31.6756936,22.2038192 31.1677592,25.169404 29.2016131,27.1053578 C27.8268808,28.4589778 25.907217,29.1444113 23.960969,28.9744958 L23.9609689,28.9744958 Z" id="Path-Copy-2" fill-rule="nonzero"></path>
            </g>
        </g>
    </g>
</svg>