<?xml version="1.0" encoding="UTF-8"?>
<svg width="36px" height="36px" viewBox="0 0 36 36" version="1.1" xmlns="http://www.w3.org/2000/svg" xmlns:xlink="http://www.w3.org/1999/xlink">
    <!-- Generator: Sketch 3.8.1 (29687) - http://www.bohemiancoding.com/sketch -->
    <title>folder_root_closed</title>
    <desc>Created with Sketch.</desc>
    <defs></defs>
    <g id="Page-1" stroke="none" stroke-width="1" fill="none" fill-rule="evenodd">
        <g id="icon-backgrounds" transform="translate(0.000000, -87.000000)"></g>
        <path d="M27.7577193,35.0589418 C24.8076915,34.8013925 22.2407065,32.812426 21.285141,30.0438208 C20.3594795,27.361859 21.0639558,24.3817275 23.0967685,22.380132 C24.6439005,20.8567586 26.8491248,20.0478017 28.9842251,20.2203962 C31.7403343,20.4431918 34.0480789,21.9841253 35.2438387,24.4000836 C36.6476972,27.2364896 36.0599514,30.668054 33.7869512,32.9061497 C32.2029526,34.4658224 29.9948346,35.2542511 27.7577193,35.0589418 L27.7577193,35.0589418 Z M29.3885335,31.1868341 L29.408256,29.9339109 L30.2954341,30.8081541 C30.7833811,31.2889877 31.2007111,31.6823973 31.2228331,31.6823973 C31.2747798,31.6823973 32.544113,30.4317212 32.544113,30.3805381 C32.544113,30.3592347 32.1445678,29.9487043 31.656235,29.4682505 L30.768357,28.5946965 L32.0408209,28.5752769 L33.3132859,28.5558572 L33.3132859,27.6431403 L33.3132859,26.7304245 L32.0408209,26.7110048 L30.768357,26.6915852 L31.656235,25.8180312 C32.1445678,25.3375763 32.544113,24.926655 32.544113,24.9048728 C32.544113,24.8537249 31.2739312,23.6038844 31.2219498,23.6038844 C31.2003142,23.6038844 30.7833811,23.997294 30.2954341,24.4781276 L29.408256,25.3523708 L29.3885335,24.0994465 L29.368811,22.8465234 L28.4418593,22.8465234 L27.5149086,22.8465234 L27.4951861,24.0994465 L27.4754636,25.3523708 L26.5882856,24.4781276 C26.1003374,23.997294 25.6834054,23.6038844 25.6617687,23.6038844 C25.6097885,23.6038844 24.3396067,24.8537249 24.3396067,24.9048728 C24.3396067,24.926655 24.7391519,25.3375763 25.2274847,25.8180312 L26.1153627,26.6915852 L24.8428977,26.7110048 L23.5704338,26.7304245 L23.5704338,27.6431403 L23.5704338,28.5558572 L24.8428977,28.5752769 L26.1153627,28.5946965 L25.2274847,29.4682505 C24.7391519,29.9487043 24.3396067,30.3596256 24.3396067,30.3814078 C24.3396067,30.432156 25.6095772,31.6823973 25.6611258,31.6823973 C25.6824081,31.6823973 26.1037779,31.2849252 26.5975033,30.7991263 L27.4951861,29.9158553 L27.4951861,31.1616234 C27.4951861,31.8467964 27.5073378,32.4193577 27.5221909,32.4339827 C27.537044,32.4486077 27.9586106,32.4558894 28.4590034,32.4501656 L29.368811,32.4397616 L29.3885335,31.1868341 Z M3,17.6615161 L3,5 L10.662288,5 L18.324576,5 L20.316243,6.96137017 L22.3079088,8.92274034 L27.9585155,8.92274034 L33.6091211,8.92274034 L33.6091211,13.9912298 C33.6091211,16.7789002 33.6004892,19.0597204 33.5899387,19.0597204 C33.5793948,19.0597204 33.4240758,18.9797024 33.2447978,18.8819019 C31.8824718,18.1387199 30.342972,17.7279617 28.7179731,17.6740878 C25.933078,17.581759 23.2449975,18.6291396 21.2661363,20.5776121 C19.374333,22.4403637 18.3045606,24.9785262 18.3045606,27.604301 C18.3045606,28.3890305 18.4571513,29.5605925 18.6346337,30.1385463 L18.6912865,30.3230322 L10.8456438,30.3230322 L3,30.3230322 L3,17.6615161 Z" id="Shape" fill="#3E4B59"></path>
    </g>
</svg>